# xmcd CD database file
#
# Track frame offsets:
#	150
#	22267
#	59535
#	83675
#	100972
#	124192
#	145017
#
# Disc length: 2308 seconds
#
# Revision: 2
# Processed by: cddbd v1.5.2PL0 Copyright (c) Steve Scherf et al.
# Submitted via: CDex 1.51
#
DISCID=5d090207
DTITLE=Albert Collins - Frozen Alive!
DYEAR=1900
DGENRE=Blues
TTITLE0=Frosty
TTITLE1=Angel Of Mercy
TTITLE2=I Got That Feeling
TTITLE3=Caldonia
TTITLE4=Things I Used To Do
TTITLE5=Got A Mind To Travel
TTITLE6=Cold Cuts
EXTD=
EXTT0=
EXTT1=
EXTT2=
EXTT3=
EXTT4=
EXTT5=
EXTT6=
PLAYORDER=
